<svg width="103" height="109" viewBox="0 0 103 109" fill="none" xmlns="http://www.w3.org/2000/svg">
<rect x="6.16016" y="23.5693" width="79" height="79" stroke="#263646" stroke-width="11"/>
<mask id="path-2-inside-1_944_18233" fill="white">
<path fill-rule="evenodd" clip-rule="evenodd" d="M51.7834 80.626C51.6677 80.739 51.5479 80.8494 51.4242 80.957C47.9858 83.9455 42.7756 83.5807 39.7871 80.1423L20.2066 57.6137C17.2181 54.1753 17.5829 48.9651 21.0213 45.9766C24.4598 42.9881 29.6699 43.3528 32.6585 46.7913L45.4354 61.4919L87.4007 3.41807C90.0689 -0.274443 95.2254 -1.10475 98.9179 1.56354C102.61 4.23182 103.441 9.38827 100.772 13.0808L52.8097 79.4543C52.4992 79.8839 52.155 80.2748 51.7834 80.626Z"/>
</mask>
<path fill-rule="evenodd" clip-rule="evenodd" d="M51.7834 80.626C51.6677 80.739 51.5479 80.8494 51.4242 80.957C47.9858 83.9455 42.7756 83.5807 39.7871 80.1423L20.2066 57.6137C17.2181 54.1753 17.5829 48.9651 21.0213 45.9766C24.4598 42.9881 29.6699 43.3528 32.6585 46.7913L45.4354 61.4919L87.4007 3.41807C90.0689 -0.274443 95.2254 -1.10475 98.9179 1.56354C102.61 4.23182 103.441 9.38827 100.772 13.0808L52.8097 79.4543C52.4992 79.8839 52.155 80.2748 51.7834 80.626Z" fill="#9BA479"/>
<path d="M51.7834 80.626L50.4098 79.1723L50.3977 79.1838L50.3857 79.1954L51.7834 80.626ZM51.4242 80.957L52.7362 82.4665L52.7362 82.4665L51.4242 80.957ZM39.7871 80.1423L38.2776 81.4542H38.2776L39.7871 80.1423ZM20.2066 57.6137L21.7162 56.3017H21.7162L20.2066 57.6137ZM21.0213 45.9766L22.3333 47.4861H22.3333L21.0213 45.9766ZM32.6585 46.7913L34.168 45.4793H34.168L32.6585 46.7913ZM45.4354 61.4919L43.9258 62.8039L45.5797 64.7068L47.0564 62.6633L45.4354 61.4919ZM87.4007 3.41807L89.0217 4.58948V4.58948L87.4007 3.41807ZM98.9179 1.56354L100.089 -0.0575129V-0.057514L98.9179 1.56354ZM100.772 13.0808L102.394 14.2522V14.2522L100.772 13.0808ZM52.8097 79.4543L51.1886 78.2829L51.1886 78.2829L52.8097 79.4543ZM50.3857 79.1954C50.2978 79.2814 50.2066 79.3654 50.1122 79.4475L52.7362 82.4665C52.8893 82.3335 53.0376 82.1967 53.1812 82.0564L50.3857 79.1954ZM50.1122 79.4474C47.5074 81.7114 43.5606 81.4351 41.2966 78.8303L38.2776 81.4542C41.9907 85.7264 48.4641 86.1796 52.7362 82.4665L50.1122 79.4474ZM41.2966 78.8303L21.7162 56.3017L18.6971 58.9257L38.2776 81.4542L41.2966 78.8303ZM21.7162 56.3017C19.4522 53.6969 19.7285 49.7501 22.3333 47.4861L19.7093 44.4671C15.4372 48.1802 14.984 54.6536 18.6971 58.9257L21.7162 56.3017ZM22.3333 47.4861C24.9381 45.2222 28.885 45.4985 31.1489 48.1033L34.168 45.4793C30.4549 41.2072 23.9815 40.754 19.7093 44.4671L22.3333 47.4861ZM31.1489 48.1033L43.9258 62.8039L46.9449 60.1799L34.168 45.4793L31.1489 48.1033ZM47.0564 62.6633L89.0217 4.58948L85.7796 2.24667L43.8143 60.3205L47.0564 62.6633ZM89.0217 4.58948C91.0431 1.79225 94.9493 1.16325 97.7465 3.18459L100.089 -0.057514C95.5015 -3.37275 89.0948 -2.34113 85.7796 2.24667L89.0217 4.58948ZM97.7465 3.18459C100.544 5.20593 101.173 9.11215 99.1514 11.9094L102.394 14.2522C105.709 9.66439 104.677 3.25772 100.089 -0.0575129L97.7465 3.18459ZM99.1514 11.9094L51.1886 78.2829L54.4307 80.6257L102.394 14.2522L99.1514 11.9094ZM51.1886 78.2829C50.952 78.6103 50.6907 78.9068 50.4098 79.1723L53.157 82.0796C53.6193 81.6428 54.0464 81.1575 54.4307 80.6257L51.1886 78.2829Z" fill="white" mask="url(#path-2-inside-1_944_18233)"/>
</svg>
