<svg width="1600" height="650" viewBox="0 0 1600 650" fill="none" xmlns="http://www.w3.org/2000/svg">
<mask id="path-1-inside-1_1475_23751" fill="white">
<path d="M0 0H1600V650H0V0Z"/>
</mask>
<path d="M0 0H1600V650H0V0Z" fill="white"/>
<path d="M267.214 258.004V290.729C262.93 293.823 258.348 296.144 253.469 297.691C248.63 299.198 243.315 299.952 237.523 299.952C230.661 299.952 224.473 298.901 218.959 296.798C213.446 294.656 208.725 291.681 204.798 287.873C200.911 284.026 197.916 279.424 195.814 274.069C193.712 268.714 192.66 262.824 192.66 256.398C192.66 249.893 193.672 243.962 195.695 238.607C197.758 233.252 200.673 228.671 204.441 224.863C208.21 221.015 212.791 218.04 218.186 215.938C223.581 213.836 229.61 212.784 236.274 212.784C239.646 212.784 242.779 213.042 245.675 213.558C248.571 214.034 251.248 214.748 253.707 215.7C256.167 216.612 258.448 217.743 260.55 219.091C262.652 220.4 264.616 221.888 266.44 223.554L263.168 228.79C262.652 229.583 261.978 230.099 261.145 230.337C260.352 230.535 259.459 230.337 258.467 229.742C257.515 229.187 256.425 228.512 255.195 227.719C253.965 226.926 252.458 226.172 250.673 225.458C248.928 224.704 246.845 224.07 244.425 223.554C242.045 223.038 239.209 222.78 235.917 222.78C231.117 222.78 226.774 223.574 222.886 225.16C218.999 226.707 215.687 228.949 212.95 231.884C210.213 234.78 208.111 238.31 206.643 242.475C205.175 246.6 204.441 251.241 204.441 256.398C204.441 261.753 205.195 266.553 206.702 270.797C208.249 275.002 210.431 278.591 213.247 281.566C216.103 284.502 219.554 286.743 223.6 288.29C227.646 289.837 232.188 290.61 237.226 290.61C241.193 290.61 244.703 290.174 247.757 289.301C250.851 288.389 253.866 287.14 256.801 285.553V266.81H243.533C242.779 266.81 242.164 266.592 241.688 266.156C241.252 265.72 241.034 265.184 241.034 264.549V258.004H267.214ZM322.026 262.288C322.026 259.829 321.669 257.588 320.955 255.565C320.281 253.502 319.27 251.737 317.921 250.269C316.612 248.762 315.005 247.612 313.101 246.818C311.197 245.985 309.036 245.569 306.616 245.569C301.539 245.569 297.512 247.056 294.537 250.031C291.602 252.967 289.777 257.052 289.063 262.288H322.026ZM330.594 290.551C329.285 292.138 327.719 293.526 325.894 294.716C324.069 295.866 322.106 296.818 320.003 297.572C317.941 298.326 315.799 298.881 313.577 299.238C311.356 299.635 309.155 299.833 306.973 299.833C302.808 299.833 298.96 299.139 295.43 297.75C291.939 296.322 288.905 294.26 286.326 291.562C283.788 288.825 281.804 285.454 280.376 281.447C278.948 277.441 278.234 272.84 278.234 267.643C278.234 263.439 278.869 259.512 280.138 255.862C281.447 252.213 283.312 249.06 285.731 246.402C288.151 243.705 291.106 241.602 294.597 240.095C298.088 238.548 302.015 237.774 306.378 237.774C309.988 237.774 313.32 238.389 316.374 239.619C319.468 240.809 322.126 242.554 324.347 244.855C326.608 247.116 328.373 249.932 329.642 253.304C330.912 256.636 331.546 260.444 331.546 264.728C331.546 266.394 331.368 267.505 331.011 268.06C330.654 268.615 329.98 268.893 328.988 268.893H288.706C288.825 272.701 289.341 276.013 290.253 278.829C291.205 281.646 292.514 284.006 294.18 285.91C295.846 287.774 297.83 289.182 300.13 290.134C302.431 291.047 305.009 291.503 307.865 291.503C310.523 291.503 312.804 291.205 314.708 290.61C316.652 289.976 318.318 289.301 319.706 288.587C321.094 287.873 322.245 287.219 323.157 286.624C324.109 285.989 324.922 285.672 325.596 285.672C326.469 285.672 327.143 286.009 327.619 286.683L330.594 290.551ZM362.595 299.952C357.835 299.952 354.166 298.623 351.588 295.965C349.049 293.308 347.78 289.48 347.78 284.482V247.592H340.521C339.886 247.592 339.351 247.413 338.914 247.056C338.478 246.66 338.26 246.065 338.26 245.271V241.047L348.137 239.797L350.576 221.174C350.695 220.579 350.953 220.103 351.35 219.746C351.786 219.349 352.341 219.151 353.016 219.151H358.371V239.916H375.804V247.592H358.371V283.768C358.371 286.307 358.986 288.191 360.215 289.42C361.445 290.65 363.032 291.265 364.975 291.265C366.086 291.265 367.038 291.126 367.831 290.848C368.664 290.531 369.378 290.194 369.973 289.837C370.568 289.48 371.064 289.163 371.461 288.885C371.897 288.568 372.274 288.409 372.591 288.409C373.147 288.409 373.642 288.746 374.079 289.42L377.173 294.478C375.348 296.184 373.147 297.532 370.568 298.524C367.99 299.476 365.332 299.952 362.595 299.952ZM877.157 238.726L857.641 299H849.251C848.22 299 847.506 298.326 847.109 296.977L833.781 256.1C833.464 255.188 833.206 254.276 833.008 253.363C832.809 252.411 832.611 251.479 832.413 250.567C832.214 251.479 832.016 252.411 831.818 253.363C831.619 254.276 831.361 255.208 831.044 256.16L817.478 296.977C817.121 298.326 816.328 299 815.098 299H807.125L787.609 238.726H795.939C796.772 238.726 797.466 238.945 798.022 239.381C798.617 239.817 799.013 240.333 799.212 240.928L810.755 279.722C811.429 282.578 811.964 285.275 812.361 287.814C812.718 286.505 813.075 285.176 813.432 283.827C813.829 282.479 814.245 281.11 814.682 279.722L827.415 240.69C827.613 240.095 827.95 239.599 828.426 239.203C828.942 238.806 829.557 238.607 830.271 238.607H834.912C835.705 238.607 836.359 238.806 836.875 239.203C837.391 239.599 837.748 240.095 837.946 240.69L850.382 279.722C850.818 281.11 851.215 282.479 851.572 283.827C851.929 285.176 852.266 286.505 852.583 287.814C852.781 286.505 853.019 285.196 853.297 283.887C853.614 282.538 853.952 281.15 854.309 279.722L866.09 240.928C866.288 240.293 866.665 239.778 867.22 239.381C867.775 238.945 868.43 238.726 869.184 238.726H877.157ZM898.655 238.726V299H888.064V238.726H898.655ZM900.916 219.805C900.916 220.837 900.697 221.809 900.261 222.721C899.864 223.594 899.309 224.387 898.595 225.101C897.921 225.775 897.108 226.311 896.156 226.707C895.243 227.104 894.271 227.302 893.24 227.302C892.209 227.302 891.237 227.104 890.325 226.707C889.452 226.311 888.678 225.775 888.004 225.101C887.33 224.387 886.794 223.594 886.398 222.721C886.001 221.809 885.803 220.837 885.803 219.805C885.803 218.774 886.001 217.802 886.398 216.89C886.794 215.938 887.33 215.125 888.004 214.45C888.678 213.736 889.452 213.181 890.325 212.784C891.237 212.388 892.209 212.189 893.24 212.189C894.271 212.189 895.243 212.388 896.156 212.784C897.108 213.181 897.921 213.736 898.595 214.45C899.309 215.125 899.864 215.938 900.261 216.89C900.697 217.802 900.916 218.774 900.916 219.805ZM934.561 299.952C929.801 299.952 926.132 298.623 923.553 295.965C921.015 293.308 919.745 289.48 919.745 284.482V247.592H912.486C911.852 247.592 911.316 247.413 910.88 247.056C910.444 246.66 910.225 246.065 910.225 245.271V241.047L920.102 239.797L922.542 221.174C922.661 220.579 922.919 220.103 923.315 219.746C923.752 219.349 924.307 219.151 924.981 219.151H930.336V239.916H947.77V247.592H930.336V283.768C930.336 286.307 930.951 288.191 932.181 289.42C933.411 290.65 934.997 291.265 936.941 291.265C938.052 291.265 939.004 291.126 939.797 290.848C940.63 290.531 941.344 290.194 941.939 289.837C942.534 289.48 943.03 289.163 943.426 288.885C943.863 288.568 944.24 288.409 944.557 288.409C945.112 288.409 945.608 288.746 946.044 289.42L949.138 294.478C947.314 296.184 945.112 297.532 942.534 298.524C939.956 299.476 937.298 299.952 934.561 299.952ZM969.356 246.759C971.935 244.022 974.791 241.84 977.924 240.214C981.058 238.588 984.668 237.774 988.753 237.774C992.046 237.774 994.941 238.33 997.44 239.44C999.979 240.511 1002.08 242.058 1003.75 244.081C1005.45 246.065 1006.74 248.465 1007.61 251.281C1008.49 254.097 1008.92 257.211 1008.92 260.622V299H998.273V260.622C998.273 256.061 997.222 252.53 995.12 250.031C993.057 247.493 989.904 246.223 985.659 246.223C982.526 246.223 979.59 246.977 976.853 248.484C974.156 249.992 971.657 252.035 969.356 254.613V299H958.706V211.356H969.356V246.759ZM1033.69 287.049C1033.69 289.76 1034.03 292.394 1034.71 294.953C1035.41 297.512 1036.42 299.944 1037.75 302.249C1037.95 302.642 1038 302.939 1037.9 303.142C1037.8 303.357 1037.66 303.528 1037.47 303.655L1035.97 304.567C1035.02 303.11 1034.2 301.666 1033.53 300.235C1032.87 298.804 1032.34 297.366 1031.92 295.922C1031.51 294.478 1031.22 293.028 1031.03 291.571C1030.84 290.102 1030.74 288.594 1030.74 287.049C1030.74 285.516 1030.84 284.015 1031.03 282.546C1031.22 281.077 1031.51 279.626 1031.92 278.195C1032.34 276.751 1032.87 275.313 1033.53 273.882C1034.2 272.451 1035.02 271 1035.97 269.531L1037.47 270.462C1037.66 270.589 1037.8 270.76 1037.9 270.975C1038 271.178 1037.95 271.469 1037.75 271.849C1036.42 274.154 1035.41 276.586 1034.71 279.145C1034.03 281.704 1033.69 284.338 1033.69 287.049ZM1046.32 299H1042.64V271.773H1046.32V299ZM1055.39 282.546C1055.8 282.077 1056.25 281.653 1056.72 281.273C1057.18 280.893 1057.68 280.57 1058.2 280.304C1058.73 280.025 1059.29 279.816 1059.87 279.677C1060.46 279.525 1061.1 279.449 1061.79 279.449C1062.84 279.449 1063.76 279.626 1064.56 279.981C1065.37 280.323 1066.04 280.817 1066.58 281.463C1067.12 282.096 1067.53 282.863 1067.81 283.762C1068.09 284.661 1068.23 285.656 1068.23 286.745V299H1064.83V286.745C1064.83 285.288 1064.49 284.161 1063.82 283.363C1063.16 282.552 1062.16 282.147 1060.8 282.147C1059.8 282.147 1058.86 282.388 1057.99 282.869C1057.13 283.35 1056.33 284.003 1055.59 284.826V299H1052.19V279.753H1054.23C1054.71 279.753 1055.01 279.987 1055.12 280.456L1055.39 282.546ZM1084.59 282.926C1084.44 283.205 1084.21 283.344 1083.89 283.344C1083.7 283.344 1083.48 283.274 1083.24 283.135C1083 282.996 1082.71 282.844 1082.35 282.679C1082.01 282.502 1081.6 282.343 1081.12 282.204C1080.63 282.052 1080.06 281.976 1079.41 281.976C1078.84 281.976 1078.32 282.052 1077.87 282.204C1077.41 282.343 1077.02 282.54 1076.69 282.793C1076.37 283.046 1076.13 283.344 1075.95 283.686C1075.78 284.015 1075.7 284.376 1075.7 284.769C1075.7 285.263 1075.84 285.675 1076.12 286.004C1076.41 286.333 1076.79 286.618 1077.26 286.859C1077.73 287.1 1078.26 287.315 1078.86 287.505C1079.45 287.682 1080.06 287.879 1080.68 288.094C1081.31 288.297 1081.93 288.525 1082.52 288.778C1083.12 289.031 1083.65 289.348 1084.12 289.728C1084.59 290.108 1084.96 290.577 1085.24 291.134C1085.53 291.679 1085.68 292.337 1085.68 293.11C1085.68 293.997 1085.52 294.82 1085.2 295.58C1084.88 296.327 1084.42 296.98 1083.8 297.537C1083.17 298.082 1082.41 298.512 1081.52 298.829C1080.62 299.146 1079.58 299.304 1078.4 299.304C1077.06 299.304 1075.84 299.089 1074.75 298.658C1073.66 298.215 1072.74 297.651 1071.98 296.967L1072.78 295.675C1072.88 295.51 1073 295.384 1073.14 295.295C1073.28 295.206 1073.45 295.162 1073.67 295.162C1073.9 295.162 1074.14 295.251 1074.39 295.428C1074.64 295.605 1074.95 295.802 1075.3 296.017C1075.67 296.232 1076.11 296.429 1076.63 296.606C1077.15 296.783 1077.8 296.872 1078.57 296.872C1079.23 296.872 1079.81 296.79 1080.3 296.625C1080.79 296.448 1081.2 296.213 1081.53 295.922C1081.86 295.631 1082.1 295.295 1082.26 294.915C1082.42 294.535 1082.5 294.13 1082.5 293.699C1082.5 293.167 1082.36 292.73 1082.07 292.388C1081.79 292.033 1081.41 291.736 1080.95 291.495C1080.48 291.242 1079.94 291.026 1079.33 290.849C1078.73 290.659 1078.12 290.463 1077.49 290.26C1076.87 290.057 1076.25 289.829 1075.64 289.576C1075.05 289.31 1074.52 288.981 1074.05 288.588C1073.58 288.195 1073.2 287.714 1072.91 287.144C1072.63 286.561 1072.49 285.858 1072.49 285.035C1072.49 284.3 1072.64 283.597 1072.95 282.926C1073.25 282.242 1073.69 281.647 1074.28 281.14C1074.86 280.621 1075.57 280.209 1076.42 279.905C1077.27 279.601 1078.24 279.449 1079.33 279.449C1080.6 279.449 1081.73 279.652 1082.73 280.057C1083.74 280.45 1084.62 280.994 1085.35 281.691L1084.59 282.926ZM1102.7 287.277C1102.7 286.492 1102.59 285.776 1102.36 285.13C1102.15 284.471 1101.82 283.908 1101.39 283.439C1100.98 282.958 1100.46 282.59 1099.85 282.337C1099.25 282.071 1098.56 281.938 1097.78 281.938C1096.16 281.938 1094.88 282.413 1093.93 283.363C1092.99 284.3 1092.41 285.605 1092.18 287.277H1102.7ZM1105.44 296.302C1105.02 296.809 1104.52 297.252 1103.94 297.632C1103.36 297.999 1102.73 298.303 1102.06 298.544C1101.4 298.785 1100.72 298.962 1100.01 299.076C1099.3 299.203 1098.59 299.266 1097.9 299.266C1096.57 299.266 1095.34 299.044 1094.21 298.601C1093.1 298.145 1092.13 297.486 1091.3 296.625C1090.49 295.751 1089.86 294.674 1089.4 293.395C1088.95 292.116 1088.72 290.646 1088.72 288.987C1088.72 287.644 1088.92 286.39 1089.33 285.225C1089.75 284.06 1090.34 283.053 1091.11 282.204C1091.89 281.343 1092.83 280.671 1093.95 280.19C1095.06 279.696 1096.31 279.449 1097.71 279.449C1098.86 279.449 1099.92 279.645 1100.9 280.038C1101.89 280.418 1102.74 280.975 1103.45 281.71C1104.17 282.432 1104.73 283.331 1105.14 284.408C1105.54 285.472 1105.74 286.688 1105.74 288.056C1105.74 288.588 1105.69 288.943 1105.57 289.12C1105.46 289.297 1105.24 289.386 1104.93 289.386H1092.06C1092.1 290.602 1092.27 291.66 1092.56 292.559C1092.86 293.458 1093.28 294.212 1093.81 294.82C1094.34 295.415 1094.98 295.865 1095.71 296.169C1096.45 296.46 1097.27 296.606 1098.18 296.606C1099.03 296.606 1099.76 296.511 1100.37 296.321C1100.99 296.118 1101.52 295.903 1101.96 295.675C1102.41 295.447 1102.77 295.238 1103.07 295.048C1103.37 294.845 1103.63 294.744 1103.84 294.744C1104.12 294.744 1104.34 294.852 1104.49 295.067L1105.44 296.302ZM1113.11 283.61C1113.72 282.293 1114.47 281.267 1115.35 280.532C1116.24 279.785 1117.32 279.411 1118.6 279.411C1119.01 279.411 1119.39 279.455 1119.76 279.544C1120.14 279.633 1120.48 279.772 1120.77 279.962L1120.52 282.489C1120.44 282.806 1120.25 282.964 1119.95 282.964C1119.77 282.964 1119.51 282.926 1119.17 282.85C1118.83 282.774 1118.44 282.736 1118.01 282.736C1117.4 282.736 1116.86 282.825 1116.38 283.002C1115.91 283.179 1115.48 283.445 1115.1 283.8C1114.74 284.142 1114.4 284.573 1114.1 285.092C1113.81 285.599 1113.54 286.181 1113.3 286.84V299H1109.9V279.753H1111.84C1112.2 279.753 1112.46 279.823 1112.6 279.962C1112.74 280.101 1112.83 280.342 1112.88 280.684L1113.11 283.61ZM1129.65 299.304C1128.13 299.304 1126.96 298.88 1126.13 298.031C1125.32 297.182 1124.92 295.96 1124.92 294.364V282.584H1122.6C1122.4 282.584 1122.23 282.527 1122.09 282.413C1121.95 282.286 1121.88 282.096 1121.88 281.843V280.494L1125.03 280.095L1125.81 274.148C1125.85 273.958 1125.93 273.806 1126.06 273.692C1126.2 273.565 1126.38 273.502 1126.59 273.502H1128.3V280.133H1133.87V282.584H1128.3V294.136C1128.3 294.947 1128.5 295.548 1128.89 295.941C1129.28 296.334 1129.79 296.53 1130.41 296.53C1130.76 296.53 1131.07 296.486 1131.32 296.397C1131.59 296.296 1131.82 296.188 1132.01 296.074C1132.2 295.96 1132.35 295.859 1132.48 295.77C1132.62 295.669 1132.74 295.618 1132.84 295.618C1133.02 295.618 1133.18 295.726 1133.32 295.941L1134.3 297.556C1133.72 298.101 1133.02 298.531 1132.2 298.848C1131.37 299.152 1130.52 299.304 1129.65 299.304ZM1161.08 288.892L1156.8 277.815C1156.68 277.486 1156.54 277.106 1156.4 276.675C1156.26 276.232 1156.13 275.763 1156 275.269C1155.74 276.295 1155.47 277.15 1155.19 277.834L1150.91 288.892H1161.08ZM1168.75 299H1165.9C1165.57 299 1165.31 298.918 1165.11 298.753C1164.9 298.588 1164.75 298.379 1164.65 298.126L1162.1 291.552H1149.89L1147.34 298.126C1147.26 298.354 1147.12 298.557 1146.9 298.734C1146.69 298.911 1146.42 299 1146.11 299H1143.26L1154.14 271.773H1157.87L1168.75 299ZM1171.46 299V279.753H1173.5C1173.98 279.753 1174.28 279.987 1174.39 280.456L1174.64 282.432C1175.35 281.558 1176.14 280.842 1177.03 280.285C1177.92 279.728 1178.94 279.449 1180.11 279.449C1181.4 279.449 1182.45 279.81 1183.24 280.532C1184.05 281.254 1184.64 282.229 1184.99 283.458C1185.27 282.761 1185.62 282.16 1186.06 281.653C1186.5 281.146 1186.99 280.728 1187.54 280.399C1188.08 280.07 1188.66 279.829 1189.27 279.677C1189.89 279.525 1190.51 279.449 1191.15 279.449C1192.16 279.449 1193.06 279.614 1193.85 279.943C1194.64 280.26 1195.31 280.728 1195.86 281.349C1196.42 281.97 1196.84 282.736 1197.13 283.648C1197.42 284.547 1197.57 285.58 1197.57 286.745V299H1194.17V286.745C1194.17 285.238 1193.84 284.098 1193.18 283.325C1192.52 282.54 1191.57 282.147 1190.33 282.147C1189.77 282.147 1189.24 282.248 1188.73 282.451C1188.24 282.641 1187.8 282.926 1187.42 283.306C1187.04 283.686 1186.74 284.167 1186.51 284.75C1186.3 285.32 1186.19 285.985 1186.19 286.745V299H1182.79V286.745C1182.79 285.2 1182.48 284.047 1181.86 283.287C1181.24 282.527 1180.33 282.147 1179.14 282.147C1178.3 282.147 1177.53 282.375 1176.82 282.831C1176.11 283.274 1175.46 283.882 1174.86 284.655V299H1171.46ZM1210.82 279.449C1212.23 279.449 1213.49 279.683 1214.62 280.152C1215.75 280.621 1216.71 281.286 1217.51 282.147C1218.31 283.008 1218.92 284.053 1219.33 285.282C1219.76 286.498 1219.98 287.86 1219.98 289.367C1219.98 290.887 1219.76 292.255 1219.33 293.471C1218.92 294.687 1218.31 295.726 1217.51 296.587C1216.71 297.448 1215.75 298.113 1214.62 298.582C1213.49 299.038 1212.23 299.266 1210.82 299.266C1209.4 299.266 1208.12 299.038 1206.98 298.582C1205.86 298.113 1204.89 297.448 1204.1 296.587C1203.3 295.726 1202.68 294.687 1202.25 293.471C1201.84 292.255 1201.63 290.887 1201.63 289.367C1201.63 287.86 1201.84 286.498 1202.25 285.282C1202.68 284.053 1203.3 283.008 1204.1 282.147C1204.89 281.286 1205.86 280.621 1206.98 280.152C1208.12 279.683 1209.4 279.449 1210.82 279.449ZM1210.82 296.625C1212.72 296.625 1214.14 295.992 1215.08 294.725C1216.02 293.446 1216.48 291.666 1216.48 289.386C1216.48 287.093 1216.02 285.307 1215.08 284.028C1214.14 282.749 1212.72 282.109 1210.82 282.109C1209.86 282.109 1209.02 282.274 1208.3 282.603C1207.59 282.932 1206.99 283.407 1206.51 284.028C1206.04 284.649 1205.69 285.415 1205.45 286.327C1205.22 287.226 1205.1 288.246 1205.1 289.386C1205.1 291.666 1205.57 293.446 1206.51 294.725C1207.46 295.992 1208.9 296.625 1210.82 296.625ZM1240.1 279.753V299H1238.08C1237.6 299 1237.3 298.766 1237.17 298.297L1236.9 296.226C1236.07 297.151 1235.13 297.898 1234.09 298.468C1233.05 299.025 1231.86 299.304 1230.52 299.304C1229.47 299.304 1228.54 299.133 1227.73 298.791C1226.93 298.436 1226.26 297.942 1225.71 297.309C1225.17 296.676 1224.76 295.909 1224.48 295.01C1224.21 294.111 1224.08 293.116 1224.08 292.027V279.753H1227.46V292.027C1227.46 293.484 1227.79 294.611 1228.45 295.409C1229.12 296.207 1230.14 296.606 1231.51 296.606C1232.51 296.606 1233.44 296.372 1234.3 295.903C1235.18 295.422 1235.98 294.763 1236.71 293.927V279.753H1240.1ZM1248.65 282.546C1249.07 282.077 1249.51 281.653 1249.98 281.273C1250.45 280.893 1250.94 280.57 1251.46 280.304C1252 280.025 1252.55 279.816 1253.14 279.677C1253.73 279.525 1254.37 279.449 1255.05 279.449C1256.11 279.449 1257.03 279.626 1257.83 279.981C1258.64 280.323 1259.31 280.817 1259.84 281.463C1260.39 282.096 1260.8 282.863 1261.08 283.762C1261.36 284.661 1261.5 285.656 1261.5 286.745V299H1258.09V286.745C1258.09 285.288 1257.76 284.161 1257.09 283.363C1256.43 282.552 1255.42 282.147 1254.07 282.147C1253.07 282.147 1252.13 282.388 1251.25 282.869C1250.39 283.35 1249.59 284.003 1248.86 284.826V299H1245.46V279.753H1247.49C1247.97 279.753 1248.27 279.987 1248.39 280.456L1248.65 282.546ZM1272.3 299.304C1270.78 299.304 1269.61 298.88 1268.78 298.031C1267.97 297.182 1267.57 295.96 1267.57 294.364V282.584H1265.25C1265.05 282.584 1264.88 282.527 1264.74 282.413C1264.6 282.286 1264.53 282.096 1264.53 281.843V280.494L1267.68 280.095L1268.46 274.148C1268.5 273.958 1268.58 273.806 1268.71 273.692C1268.85 273.565 1269.02 273.502 1269.24 273.502H1270.95V280.133H1276.52V282.584H1270.95V294.136C1270.95 294.947 1271.15 295.548 1271.54 295.941C1271.93 296.334 1272.44 296.53 1273.06 296.53C1273.41 296.53 1273.72 296.486 1273.97 296.397C1274.24 296.296 1274.46 296.188 1274.65 296.074C1274.84 295.96 1275 295.859 1275.13 295.77C1275.27 295.669 1275.39 295.618 1275.49 295.618C1275.67 295.618 1275.83 295.726 1275.96 295.941L1276.95 297.556C1276.37 298.101 1275.67 298.531 1274.84 298.848C1274.02 299.152 1273.17 299.304 1272.3 299.304ZM1312.59 271.773V299H1308.9V286.612H1294.21V299H1290.53V271.773H1294.21V283.914H1308.9V271.773H1312.59ZM1331.04 287.277C1331.04 286.492 1330.92 285.776 1330.7 285.13C1330.48 284.471 1330.16 283.908 1329.73 283.439C1329.31 282.958 1328.8 282.59 1328.19 282.337C1327.58 282.071 1326.89 281.938 1326.12 281.938C1324.5 281.938 1323.21 282.413 1322.26 283.363C1321.32 284.3 1320.74 285.605 1320.51 287.277H1331.04ZM1333.77 296.302C1333.36 296.809 1332.86 297.252 1332.27 297.632C1331.69 297.999 1331.06 298.303 1330.39 298.544C1329.73 298.785 1329.05 298.962 1328.34 299.076C1327.63 299.203 1326.93 299.266 1326.23 299.266C1324.9 299.266 1323.67 299.044 1322.55 298.601C1321.43 298.145 1320.46 297.486 1319.64 296.625C1318.83 295.751 1318.19 294.674 1317.74 293.395C1317.28 292.116 1317.05 290.646 1317.05 288.987C1317.05 287.644 1317.26 286.39 1317.66 285.225C1318.08 284.06 1318.68 283.053 1319.45 282.204C1320.22 281.343 1321.16 280.671 1322.28 280.19C1323.39 279.696 1324.65 279.449 1326.04 279.449C1327.19 279.449 1328.26 279.645 1329.23 280.038C1330.22 280.418 1331.07 280.975 1331.78 281.71C1332.5 282.432 1333.07 283.331 1333.47 284.408C1333.88 285.472 1334.08 286.688 1334.08 288.056C1334.08 288.588 1334.02 288.943 1333.91 289.12C1333.79 289.297 1333.58 289.386 1333.26 289.386H1320.4C1320.44 290.602 1320.6 291.66 1320.89 292.559C1321.2 293.458 1321.61 294.212 1322.15 294.82C1322.68 295.415 1323.31 295.865 1324.05 296.169C1324.78 296.46 1325.6 296.606 1326.52 296.606C1327.37 296.606 1328.09 296.511 1328.7 296.321C1329.32 296.118 1329.85 295.903 1330.3 295.675C1330.74 295.447 1331.11 295.238 1331.4 295.048C1331.7 294.845 1331.96 294.744 1332.18 294.744C1332.46 294.744 1332.67 294.852 1332.82 295.067L1333.77 296.302ZM1341.44 283.61C1342.05 282.293 1342.8 281.267 1343.69 280.532C1344.57 279.785 1345.66 279.411 1346.93 279.411C1347.34 279.411 1347.73 279.455 1348.09 279.544C1348.47 279.633 1348.81 279.772 1349.1 279.962L1348.85 282.489C1348.78 282.806 1348.59 282.964 1348.28 282.964C1348.11 282.964 1347.85 282.926 1347.5 282.85C1347.16 282.774 1346.78 282.736 1346.35 282.736C1345.74 282.736 1345.19 282.825 1344.71 283.002C1344.24 283.179 1343.82 283.445 1343.44 283.8C1343.07 284.142 1342.74 284.573 1342.43 285.092C1342.14 285.599 1341.87 286.181 1341.63 286.84V299H1338.23V279.753H1340.17C1340.54 279.753 1340.79 279.823 1340.93 279.962C1341.07 280.101 1341.17 280.342 1341.22 280.684L1341.44 283.61ZM1364.18 287.277C1364.18 286.492 1364.06 285.776 1363.84 285.13C1363.62 284.471 1363.3 283.908 1362.87 283.439C1362.45 282.958 1361.94 282.59 1361.33 282.337C1360.72 282.071 1360.03 281.938 1359.26 281.938C1357.63 281.938 1356.35 282.413 1355.4 283.363C1354.46 284.3 1353.88 285.605 1353.65 287.277H1364.18ZM1366.91 296.302C1366.5 296.809 1365.99 297.252 1365.41 297.632C1364.83 297.999 1364.2 298.303 1363.53 298.544C1362.87 298.785 1362.19 298.962 1361.48 299.076C1360.77 299.203 1360.07 299.266 1359.37 299.266C1358.04 299.266 1356.81 299.044 1355.68 298.601C1354.57 298.145 1353.6 297.486 1352.78 296.625C1351.97 295.751 1351.33 294.674 1350.88 293.395C1350.42 292.116 1350.19 290.646 1350.19 288.987C1350.19 287.644 1350.4 286.39 1350.8 285.225C1351.22 284.06 1351.81 283.053 1352.59 282.204C1353.36 281.343 1354.3 280.671 1355.42 280.19C1356.53 279.696 1357.79 279.449 1359.18 279.449C1360.33 279.449 1361.4 279.645 1362.37 280.038C1363.36 280.418 1364.21 280.975 1364.92 281.71C1365.64 282.432 1366.2 283.331 1366.61 284.408C1367.01 285.472 1367.22 286.688 1367.22 288.056C1367.22 288.588 1367.16 288.943 1367.05 289.12C1366.93 289.297 1366.72 289.386 1366.4 289.386H1353.54C1353.58 290.602 1353.74 291.66 1354.03 292.559C1354.34 293.458 1354.75 294.212 1355.29 294.82C1355.82 295.415 1356.45 295.865 1357.19 296.169C1357.92 296.46 1358.74 296.606 1359.66 296.606C1360.5 296.606 1361.23 296.511 1361.84 296.321C1362.46 296.118 1362.99 295.903 1363.44 295.675C1363.88 295.447 1364.25 295.238 1364.54 295.048C1364.84 294.845 1365.1 294.744 1365.32 294.744C1365.6 294.744 1365.81 294.852 1365.96 295.067L1366.91 296.302ZM1373.29 287.049C1373.29 284.338 1372.94 281.704 1372.25 279.145C1371.56 276.586 1370.56 274.154 1369.23 271.849C1369.13 271.659 1369.06 271.494 1369.04 271.355C1369.01 271.203 1369.02 271.076 1369.06 270.975C1369.09 270.861 1369.15 270.766 1369.23 270.69C1369.32 270.601 1369.41 270.525 1369.51 270.462L1371.01 269.531C1371.96 271 1372.77 272.451 1373.43 273.882C1374.1 275.313 1374.64 276.751 1375.04 278.195C1375.46 279.626 1375.76 281.077 1375.95 282.546C1376.14 284.015 1376.24 285.516 1376.24 287.049C1376.24 288.594 1376.14 290.102 1375.95 291.571C1375.76 293.028 1375.46 294.478 1375.04 295.922C1374.64 297.366 1374.1 298.804 1373.43 300.235C1372.77 301.666 1371.96 303.11 1371.01 304.567L1369.51 303.655C1369.41 303.592 1369.32 303.516 1369.23 303.427C1369.15 303.351 1369.09 303.256 1369.06 303.142C1369.02 303.041 1369.01 302.914 1369.04 302.762C1369.06 302.61 1369.13 302.439 1369.23 302.249C1370.56 299.944 1371.56 297.512 1372.25 294.953C1372.94 292.394 1373.29 289.76 1373.29 287.049ZM188.542 427.482C190.486 430.1 192.608 431.944 194.909 433.015C197.249 434.086 199.808 434.622 202.584 434.622C208.257 434.622 212.6 432.619 215.615 428.612C218.63 424.606 220.137 418.636 220.137 410.703C220.137 403.325 218.788 397.91 216.091 394.459C213.433 390.969 209.625 389.223 204.667 389.223C201.216 389.223 198.201 390.017 195.623 391.603C193.084 393.19 190.724 395.431 188.542 398.327V427.482ZM188.542 390.413C191.081 387.478 193.937 385.138 197.11 383.392C200.323 381.647 204.012 380.774 208.177 380.774C211.708 380.774 214.881 381.449 217.697 382.797C220.553 384.146 222.973 386.11 224.956 388.688C226.94 391.227 228.447 394.321 229.478 397.97C230.549 401.619 231.085 405.725 231.085 410.286C231.085 415.165 230.49 419.608 229.3 423.614C228.11 427.621 226.384 431.052 224.123 433.908C221.902 436.724 219.185 438.926 215.972 440.512C212.759 442.06 209.149 442.833 205.143 442.833C201.176 442.833 197.824 442.099 195.087 440.631C192.39 439.124 190.03 437.002 188.007 434.265L187.471 439.739C187.154 441.246 186.242 442 184.734 442H177.892V354.356H188.542V390.413ZM294.044 381.726V442H287.737C286.23 442 285.278 441.266 284.881 439.798L284.048 433.313C281.43 436.209 278.495 438.549 275.242 440.334C271.99 442.079 268.261 442.952 264.056 442.952C260.764 442.952 257.848 442.417 255.31 441.345C252.811 440.235 250.708 438.688 249.003 436.704C247.297 434.721 246.008 432.321 245.135 429.505C244.302 426.689 243.886 423.575 243.886 420.163V381.726H254.477V420.163C254.477 424.725 255.508 428.255 257.571 430.754C259.673 433.253 262.866 434.503 267.15 434.503C270.284 434.503 273.199 433.769 275.897 432.301C278.634 430.794 281.153 428.731 283.453 426.113V381.726H294.044ZM345.942 391.663C345.466 392.536 344.732 392.972 343.741 392.972C343.146 392.972 342.471 392.754 341.718 392.317C340.964 391.881 340.032 391.405 338.921 390.889C337.85 390.334 336.561 389.838 335.054 389.402C333.546 388.926 331.761 388.688 329.699 388.688C327.914 388.688 326.307 388.926 324.879 389.402C323.451 389.838 322.222 390.453 321.19 391.246C320.199 392.04 319.425 392.972 318.87 394.043C318.354 395.074 318.096 396.205 318.096 397.434C318.096 398.981 318.533 400.271 319.405 401.302C320.318 402.333 321.508 403.226 322.975 403.979C324.443 404.733 326.109 405.407 327.973 406.002C329.838 406.558 331.742 407.173 333.685 407.847C335.669 408.482 337.592 409.196 339.457 409.989C341.321 410.782 342.987 411.774 344.455 412.964C345.922 414.154 347.093 415.622 347.965 417.367C348.878 419.073 349.334 421.135 349.334 423.555C349.334 426.332 348.838 428.91 347.846 431.29C346.855 433.63 345.387 435.673 343.443 437.418C341.5 439.124 339.12 440.473 336.303 441.464C333.487 442.456 330.234 442.952 326.545 442.952C322.341 442.952 318.533 442.278 315.121 440.929C311.71 439.541 308.814 437.775 306.434 435.633L308.933 431.587C309.251 431.072 309.627 430.675 310.064 430.397C310.5 430.12 311.055 429.981 311.73 429.981C312.444 429.981 313.197 430.259 313.991 430.814C314.784 431.369 315.736 431.984 316.847 432.658C317.997 433.333 319.385 433.948 321.012 434.503C322.638 435.058 324.661 435.336 327.081 435.336C329.143 435.336 330.948 435.078 332.495 434.562C334.042 434.007 335.331 433.273 336.363 432.361C337.394 431.449 338.148 430.397 338.624 429.207C339.139 428.017 339.397 426.748 339.397 425.399C339.397 423.733 338.941 422.365 338.029 421.294C337.156 420.183 335.986 419.251 334.518 418.497C333.051 417.704 331.365 417.03 329.461 416.474C327.596 415.879 325.673 415.265 323.689 414.63C321.746 413.995 319.822 413.281 317.918 412.488C316.053 411.655 314.387 410.624 312.92 409.394C311.452 408.164 310.262 406.657 309.35 404.872C308.477 403.047 308.041 400.846 308.041 398.267C308.041 395.967 308.517 393.765 309.469 391.663C310.421 389.521 311.809 387.657 313.634 386.07C315.458 384.444 317.7 383.154 320.357 382.203C323.015 381.25 326.049 380.774 329.461 380.774C333.427 380.774 336.978 381.409 340.111 382.678C343.285 383.908 346.022 385.614 348.322 387.795L345.942 391.663ZM373.505 381.726V442H362.914V381.726H373.505ZM375.766 362.805C375.766 363.837 375.548 364.809 375.111 365.721C374.715 366.594 374.159 367.387 373.445 368.101C372.771 368.775 371.958 369.311 371.006 369.707C370.093 370.104 369.122 370.302 368.09 370.302C367.059 370.302 366.087 370.104 365.175 369.707C364.302 369.311 363.529 368.775 362.854 368.101C362.18 367.387 361.644 366.594 361.248 365.721C360.851 364.809 360.653 363.837 360.653 362.805C360.653 361.774 360.851 360.802 361.248 359.89C361.644 358.938 362.18 358.125 362.854 357.45C363.529 356.736 364.302 356.181 365.175 355.784C366.087 355.388 367.059 355.189 368.09 355.189C369.122 355.189 370.093 355.388 371.006 355.784C371.958 356.181 372.771 356.736 373.445 357.45C374.159 358.125 374.715 358.938 375.111 359.89C375.548 360.802 375.766 361.774 375.766 362.805ZM400.903 390.473C402.212 389.005 403.6 387.676 405.068 386.486C406.535 385.296 408.082 384.285 409.709 383.452C411.375 382.579 413.12 381.925 414.945 381.488C416.809 381.012 418.812 380.774 420.954 380.774C424.246 380.774 427.142 381.33 429.641 382.44C432.18 383.511 434.282 385.058 435.948 387.081C437.654 389.065 438.943 391.465 439.816 394.281C440.688 397.097 441.125 400.211 441.125 403.622V442H430.474V403.622C430.474 399.061 429.423 395.53 427.321 393.031C425.258 390.493 422.104 389.223 417.86 389.223C414.726 389.223 411.791 389.977 409.054 391.484C406.357 392.992 403.858 395.035 401.557 397.613V442H390.907V381.726H397.273C398.78 381.726 399.713 382.46 400.07 383.928L400.903 390.473ZM497.604 405.288C497.604 402.829 497.247 400.588 496.533 398.565C495.859 396.502 494.847 394.737 493.499 393.269C492.19 391.762 490.583 390.612 488.679 389.818C486.775 388.985 484.613 388.569 482.194 388.569C477.116 388.569 473.09 390.056 470.115 393.031C467.18 395.967 465.355 400.052 464.641 405.288H497.604ZM506.172 433.551C504.863 435.138 503.296 436.526 501.472 437.716C499.647 438.866 497.683 439.818 495.581 440.572C493.518 441.326 491.376 441.881 489.155 442.238C486.934 442.635 484.732 442.833 482.551 442.833C478.386 442.833 474.538 442.139 471.008 440.75C467.517 439.322 464.482 437.26 461.904 434.562C459.365 431.825 457.382 428.454 455.954 424.447C454.526 420.441 453.812 415.84 453.812 410.643C453.812 406.439 454.447 402.512 455.716 398.862C457.025 395.213 458.889 392.06 461.309 389.402C463.729 386.705 466.684 384.602 470.175 383.095C473.665 381.548 477.592 380.774 481.956 380.774C485.565 380.774 488.897 381.389 491.952 382.619C495.046 383.809 497.703 385.554 499.925 387.855C502.186 390.116 503.951 392.932 505.22 396.304C506.489 399.636 507.124 403.444 507.124 407.728C507.124 409.394 506.946 410.505 506.589 411.06C506.232 411.615 505.557 411.893 504.566 411.893H464.284C464.403 415.701 464.919 419.013 465.831 421.829C466.783 424.646 468.092 427.006 469.758 428.91C471.424 430.774 473.407 432.182 475.708 433.134C478.009 434.047 480.587 434.503 483.443 434.503C486.101 434.503 488.382 434.205 490.286 433.61C492.229 432.976 493.895 432.301 495.284 431.587C496.672 430.873 497.822 430.219 498.735 429.624C499.687 428.989 500.5 428.672 501.174 428.672C502.047 428.672 502.721 429.009 503.197 429.683L506.172 433.551ZM555.238 391.663C554.762 392.536 554.028 392.972 553.037 392.972C552.442 392.972 551.767 392.754 551.014 392.317C550.26 391.881 549.328 391.405 548.217 390.889C547.146 390.334 545.857 389.838 544.35 389.402C542.842 388.926 541.057 388.688 538.995 388.688C537.21 388.688 535.603 388.926 534.175 389.402C532.747 389.838 531.517 390.453 530.486 391.246C529.494 392.04 528.721 392.972 528.166 394.043C527.65 395.074 527.392 396.205 527.392 397.434C527.392 398.981 527.828 400.271 528.701 401.302C529.613 402.333 530.803 403.226 532.271 403.979C533.739 404.733 535.405 405.407 537.269 406.002C539.133 406.558 541.037 407.173 542.981 407.847C544.964 408.482 546.888 409.196 548.753 409.989C550.617 410.782 552.283 411.774 553.751 412.964C555.218 414.154 556.388 415.622 557.261 417.367C558.173 419.073 558.63 421.135 558.63 423.555C558.63 426.332 558.134 428.91 557.142 431.29C556.15 433.63 554.683 435.673 552.739 437.418C550.795 439.124 548.415 440.473 545.599 441.464C542.783 442.456 539.53 442.952 535.841 442.952C531.636 442.952 527.828 442.278 524.417 440.929C521.006 439.541 518.11 437.775 515.73 435.633L518.229 431.587C518.546 431.072 518.923 430.675 519.36 430.397C519.796 430.12 520.351 429.981 521.026 429.981C521.74 429.981 522.493 430.259 523.287 430.814C524.08 431.369 525.032 431.984 526.143 432.658C527.293 433.333 528.681 433.948 530.308 434.503C531.934 435.058 533.957 435.336 536.377 435.336C538.439 435.336 540.244 435.078 541.791 434.562C543.338 434.007 544.627 433.273 545.659 432.361C546.69 431.449 547.444 430.397 547.92 429.207C548.435 428.017 548.693 426.748 548.693 425.399C548.693 423.733 548.237 422.365 547.325 421.294C546.452 420.183 545.282 419.251 543.814 418.497C542.346 417.704 540.661 417.03 538.757 416.474C536.892 415.879 534.968 415.265 532.985 414.63C531.041 413.995 529.118 413.281 527.214 412.488C525.349 411.655 523.683 410.624 522.216 409.394C520.748 408.164 519.558 406.657 518.646 404.872C517.773 403.047 517.337 400.846 517.337 398.267C517.337 395.967 517.813 393.765 518.765 391.663C519.717 389.521 521.105 387.657 522.93 386.07C524.754 384.444 526.995 383.154 529.653 382.203C532.311 381.25 535.345 380.774 538.757 380.774C542.723 380.774 546.273 381.409 549.407 382.678C552.58 383.908 555.317 385.614 557.618 387.795L555.238 391.663ZM606.72 391.663C606.244 392.536 605.51 392.972 604.518 392.972C603.923 392.972 603.249 392.754 602.495 392.317C601.741 391.881 600.809 391.405 599.699 390.889C598.628 390.334 597.338 389.838 595.831 389.402C594.324 388.926 592.539 388.688 590.476 388.688C588.691 388.688 587.085 388.926 585.657 389.402C584.229 389.838 582.999 390.453 581.968 391.246C580.976 392.04 580.202 392.972 579.647 394.043C579.131 395.074 578.874 396.205 578.874 397.434C578.874 398.981 579.31 400.271 580.183 401.302C581.095 402.333 582.285 403.226 583.753 403.979C585.22 404.733 586.886 405.407 588.751 406.002C590.615 406.558 592.519 407.173 594.463 407.847C596.446 408.482 598.37 409.196 600.234 409.989C602.098 410.782 603.764 411.774 605.232 412.964C606.7 414.154 607.87 415.622 608.743 417.367C609.655 419.073 610.111 421.135 610.111 423.555C610.111 426.332 609.615 428.91 608.624 431.29C607.632 433.63 606.164 435.673 604.221 437.418C602.277 439.124 599.897 440.473 597.081 441.464C594.264 442.456 591.012 442.952 587.323 442.952C583.118 442.952 579.31 442.278 575.899 440.929C572.487 439.541 569.592 437.775 567.212 435.633L569.711 431.587C570.028 431.072 570.405 430.675 570.841 430.397C571.277 430.12 571.833 429.981 572.507 429.981C573.221 429.981 573.975 430.259 574.768 430.814C575.561 431.369 576.513 431.984 577.624 432.658C578.774 433.333 580.163 433.948 581.789 434.503C583.415 435.058 585.438 435.336 587.858 435.336C589.921 435.336 591.726 435.078 593.273 434.562C594.82 434.007 596.109 433.273 597.14 432.361C598.171 431.449 598.925 430.397 599.401 429.207C599.917 428.017 600.175 426.748 600.175 425.399C600.175 423.733 599.718 422.365 598.806 421.294C597.933 420.183 596.763 419.251 595.296 418.497C593.828 417.704 592.142 417.03 590.238 416.474C588.374 415.879 586.45 415.265 584.467 414.63C582.523 413.995 580.599 413.281 578.695 412.488C576.831 411.655 575.165 410.624 573.697 409.394C572.229 408.164 571.039 406.657 570.127 404.872C569.254 403.047 568.818 400.846 568.818 398.267C568.818 395.967 569.294 393.765 570.246 391.663C571.198 389.521 572.586 387.657 574.411 386.07C576.236 384.444 578.477 383.154 581.135 382.203C583.792 381.25 586.827 380.774 590.238 380.774C594.205 380.774 597.755 381.409 600.889 382.678C604.062 383.908 606.799 385.614 609.1 387.795L606.72 391.663ZM663.437 405.288C663.437 402.829 663.08 400.588 662.366 398.565C661.692 396.502 660.68 394.737 659.332 393.269C658.023 391.762 656.416 390.612 654.512 389.818C652.608 388.985 650.446 388.569 648.027 388.569C642.949 388.569 638.923 390.056 635.948 393.031C633.013 395.967 631.188 400.052 630.474 405.288H663.437ZM672.005 433.551C670.696 435.138 669.129 436.526 667.305 437.716C665.48 438.866 663.516 439.818 661.414 440.572C659.351 441.326 657.209 441.881 654.988 442.238C652.767 442.635 650.565 442.833 648.384 442.833C644.219 442.833 640.371 442.139 636.841 440.75C633.35 439.322 630.315 437.26 627.737 434.562C625.198 431.825 623.215 428.454 621.787 424.447C620.359 420.441 619.645 415.84 619.645 410.643C619.645 406.439 620.28 402.512 621.549 398.862C622.858 395.213 624.722 392.06 627.142 389.402C629.562 386.705 632.517 384.602 636.008 383.095C639.498 381.548 643.425 380.774 647.789 380.774C651.398 380.774 654.73 381.389 657.785 382.619C660.879 383.809 663.536 385.554 665.758 387.855C668.019 390.116 669.784 392.932 671.053 396.304C672.322 399.636 672.957 403.444 672.957 407.728C672.957 409.394 672.779 410.505 672.422 411.06C672.065 411.615 671.39 411.893 670.399 411.893H630.117C630.236 415.701 630.752 419.013 631.664 421.829C632.616 424.646 633.925 427.006 635.591 428.91C637.257 430.774 639.24 432.182 641.541 433.134C643.842 434.047 646.42 434.503 649.276 434.503C651.934 434.503 654.215 434.205 656.119 433.61C658.062 432.976 659.728 432.301 661.117 431.587C662.505 430.873 663.655 430.219 664.568 429.624C665.52 428.989 666.333 428.672 667.007 428.672C667.88 428.672 668.554 429.009 669.03 429.683L672.005 433.551ZM721.071 391.663C720.595 392.536 719.861 392.972 718.87 392.972C718.275 392.972 717.6 392.754 716.847 392.317C716.093 391.881 715.161 391.405 714.05 390.889C712.979 390.334 711.69 389.838 710.183 389.402C708.675 388.926 706.89 388.688 704.828 388.688C703.043 388.688 701.436 388.926 700.008 389.402C698.58 389.838 697.35 390.453 696.319 391.246C695.327 392.04 694.554 392.972 693.999 394.043C693.483 395.074 693.225 396.205 693.225 397.434C693.225 398.981 693.661 400.271 694.534 401.302C695.446 402.333 696.636 403.226 698.104 403.979C699.572 404.733 701.238 405.407 703.102 406.002C704.966 406.558 706.87 407.173 708.814 407.847C710.797 408.482 712.721 409.196 714.586 409.989C716.45 410.782 718.116 411.774 719.584 412.964C721.051 414.154 722.221 415.622 723.094 417.367C724.006 419.073 724.463 421.135 724.463 423.555C724.463 426.332 723.967 428.91 722.975 431.29C721.983 433.63 720.516 435.673 718.572 437.418C716.628 439.124 714.248 440.473 711.432 441.464C708.616 442.456 705.363 442.952 701.674 442.952C697.469 442.952 693.661 442.278 690.25 440.929C686.839 439.541 683.943 437.775 681.563 435.633L684.062 431.587C684.379 431.072 684.756 430.675 685.193 430.397C685.629 430.12 686.184 429.981 686.859 429.981C687.573 429.981 688.326 430.259 689.12 430.814C689.913 431.369 690.865 431.984 691.976 432.658C693.126 433.333 694.514 433.948 696.141 434.503C697.767 435.058 699.79 435.336 702.21 435.336C704.272 435.336 706.077 435.078 707.624 434.562C709.171 434.007 710.46 433.273 711.492 432.361C712.523 431.449 713.277 430.397 713.753 429.207C714.268 428.017 714.526 426.748 714.526 425.399C714.526 423.733 714.07 422.365 713.158 421.294C712.285 420.183 711.115 419.251 709.647 418.497C708.179 417.704 706.494 417.03 704.59 416.474C702.725 415.879 700.801 415.265 698.818 414.63C696.874 413.995 694.951 413.281 693.047 412.488C691.182 411.655 689.516 410.624 688.049 409.394C686.581 408.164 685.391 406.657 684.479 404.872C683.606 403.047 683.17 400.846 683.17 398.267C683.17 395.967 683.646 393.765 684.598 391.663C685.55 389.521 686.938 387.657 688.763 386.07C690.587 384.444 692.828 383.154 695.486 382.203C698.144 381.25 701.178 380.774 704.59 380.774C708.556 380.774 712.106 381.409 715.24 382.678C718.413 383.908 721.15 385.614 723.451 387.795L721.071 391.663ZM779.081 381.726V442H768.49V381.726H779.081ZM781.342 362.805C781.342 363.837 781.124 364.809 780.687 365.721C780.291 366.594 779.735 367.387 779.021 368.101C778.347 368.775 777.534 369.311 776.582 369.707C775.67 370.104 774.698 370.302 773.666 370.302C772.635 370.302 771.663 370.104 770.751 369.707C769.878 369.311 769.105 368.775 768.43 368.101C767.756 367.387 767.221 366.594 766.824 365.721C766.427 364.809 766.229 363.837 766.229 362.805C766.229 361.774 766.427 360.802 766.824 359.89C767.221 358.938 767.756 358.125 768.43 357.45C769.105 356.736 769.878 356.181 770.751 355.784C771.663 355.388 772.635 355.189 773.666 355.189C774.698 355.189 775.67 355.388 776.582 355.784C777.534 356.181 778.347 356.736 779.021 357.45C779.735 358.125 780.291 358.938 780.687 359.89C781.124 360.802 781.342 361.774 781.342 362.805ZM806.479 390.473C807.788 389.005 809.176 387.676 810.644 386.486C812.111 385.296 813.658 384.285 815.285 383.452C816.951 382.579 818.696 381.925 820.521 381.488C822.385 381.012 824.388 380.774 826.53 380.774C829.823 380.774 832.718 381.33 835.217 382.44C837.756 383.511 839.858 385.058 841.524 387.081C843.23 389.065 844.519 391.465 845.392 394.281C846.264 397.097 846.701 400.211 846.701 403.622V442H836.05V403.622C836.05 399.061 834.999 395.53 832.897 393.031C830.834 390.493 827.681 389.223 823.436 389.223C820.303 389.223 817.367 389.977 814.63 391.484C811.933 392.992 809.434 395.035 807.133 397.613V442H796.483V381.726H802.849C804.357 381.726 805.289 382.46 805.646 383.928L806.479 390.473ZM945.289 381.726L911.672 459.791C911.315 460.584 910.859 461.219 910.303 461.695C909.788 462.171 908.975 462.409 907.864 462.409H900.01L911.017 438.489L886.146 381.726H895.309C896.222 381.726 896.936 381.964 897.451 382.44C898.007 382.877 898.384 383.373 898.582 383.928L914.706 421.889C915.341 423.555 915.877 425.3 916.313 427.125C916.868 425.261 917.463 423.495 918.098 421.829L933.746 383.928C933.984 383.293 934.381 382.778 934.936 382.381C935.531 381.945 936.186 381.726 936.9 381.726H945.289ZM978.425 380.774C982.828 380.774 986.795 381.508 990.325 382.976C993.856 384.444 996.87 386.526 999.369 389.223C1001.87 391.921 1003.77 395.193 1005.08 399.041C1006.43 402.849 1007.1 407.113 1007.1 411.833C1007.1 416.593 1006.43 420.877 1005.08 424.685C1003.77 428.493 1001.87 431.746 999.369 434.443C996.87 437.141 993.856 439.223 990.325 440.691C986.795 442.119 982.828 442.833 978.425 442.833C973.983 442.833 969.976 442.119 966.406 440.691C962.876 439.223 959.861 437.141 957.362 434.443C954.863 431.746 952.94 428.493 951.591 424.685C950.282 420.877 949.627 416.593 949.627 411.833C949.627 407.113 950.282 402.849 951.591 399.041C952.94 395.193 954.863 391.921 957.362 389.223C959.861 386.526 962.876 384.444 966.406 382.976C969.976 381.508 973.983 380.774 978.425 380.774ZM978.425 434.562C984.375 434.562 988.818 432.579 991.753 428.612C994.689 424.606 996.156 419.033 996.156 411.893C996.156 404.713 994.689 399.12 991.753 395.114C988.818 391.108 984.375 389.104 978.425 389.104C975.411 389.104 972.773 389.62 970.512 390.651C968.291 391.683 966.426 393.17 964.919 395.114C963.451 397.058 962.341 399.457 961.587 402.313C960.873 405.13 960.516 408.323 960.516 411.893C960.516 419.033 961.984 424.606 964.919 428.612C967.894 432.579 972.396 434.562 978.425 434.562ZM1070.1 381.726V442H1063.79C1062.29 442 1061.33 441.266 1060.94 439.798L1060.1 433.313C1057.49 436.209 1054.55 438.549 1051.3 440.334C1048.05 442.079 1044.32 442.952 1040.11 442.952C1036.82 442.952 1033.91 442.417 1031.37 441.345C1028.87 440.235 1026.77 438.688 1025.06 436.704C1023.35 434.721 1022.06 432.321 1021.19 429.505C1020.36 426.689 1019.94 423.575 1019.94 420.163V381.726H1030.53V420.163C1030.53 424.725 1031.56 428.255 1033.63 430.754C1035.73 433.253 1038.92 434.503 1043.21 434.503C1046.34 434.503 1049.26 433.769 1051.95 432.301C1054.69 430.794 1057.21 428.731 1059.51 426.113V381.726H1070.1ZM1096.95 393.805C1098.85 389.68 1101.19 386.467 1103.97 384.166C1106.75 381.826 1110.14 380.655 1114.14 380.655C1115.41 380.655 1116.62 380.794 1117.77 381.072C1118.96 381.35 1120.02 381.786 1120.93 382.381L1120.15 390.294C1119.92 391.286 1119.32 391.782 1118.37 391.782C1117.81 391.782 1117 391.663 1115.93 391.425C1114.86 391.187 1113.65 391.068 1112.3 391.068C1110.4 391.068 1108.69 391.346 1107.18 391.901C1105.72 392.456 1104.39 393.289 1103.2 394.4C1102.05 395.471 1101 396.82 1100.04 398.446C1099.13 400.033 1098.3 401.857 1097.54 403.92V442H1086.89V381.726H1092.96C1094.11 381.726 1094.91 381.945 1095.34 382.381C1095.78 382.817 1096.08 383.571 1096.24 384.642L1096.95 393.805ZM1193.35 414.868C1188.47 415.027 1184.31 415.423 1180.86 416.058C1177.45 416.653 1174.65 417.446 1172.47 418.438C1170.33 419.43 1168.76 420.6 1167.77 421.948C1166.82 423.297 1166.34 424.804 1166.34 426.47C1166.34 428.057 1166.6 429.426 1167.11 430.576C1167.63 431.726 1168.32 432.678 1169.2 433.432C1170.11 434.146 1171.16 434.681 1172.35 435.038C1173.58 435.356 1174.89 435.514 1176.28 435.514C1178.14 435.514 1179.85 435.336 1181.39 434.979C1182.94 434.582 1184.39 434.027 1185.74 433.313C1187.13 432.599 1188.43 431.746 1189.66 430.754C1190.93 429.763 1192.16 428.632 1193.35 427.363V414.868ZM1159.14 390.235C1162.47 387.022 1166.06 384.622 1169.91 383.035C1173.76 381.449 1178.02 380.655 1182.7 380.655C1186.07 380.655 1189.07 381.211 1191.69 382.321C1194.31 383.432 1196.51 384.979 1198.29 386.962C1200.08 388.946 1201.43 391.346 1202.34 394.162C1203.25 396.978 1203.71 400.072 1203.71 403.444V442H1199.01C1197.97 442 1197.18 441.841 1196.63 441.524C1196.07 441.167 1195.63 440.493 1195.32 439.501L1194.13 433.789C1192.54 435.257 1190.99 436.566 1189.49 437.716C1187.98 438.827 1186.39 439.779 1184.73 440.572C1183.06 441.326 1181.27 441.901 1179.37 442.298C1177.51 442.734 1175.42 442.952 1173.12 442.952C1170.78 442.952 1168.58 442.635 1166.52 442C1164.46 441.326 1162.65 440.334 1161.1 439.025C1159.6 437.716 1158.39 436.07 1157.47 434.086C1156.6 432.063 1156.17 429.683 1156.17 426.946C1156.17 424.566 1156.82 422.286 1158.13 420.104C1159.44 417.883 1161.56 415.919 1164.5 414.213C1167.43 412.508 1171.26 411.119 1175.98 410.048C1180.7 408.938 1186.49 408.303 1193.35 408.144V403.444C1193.35 398.763 1192.34 395.233 1190.32 392.853C1188.3 390.433 1185.34 389.223 1181.45 389.223C1178.84 389.223 1176.63 389.561 1174.85 390.235C1173.1 390.87 1171.58 391.603 1170.27 392.436C1169 393.23 1167.89 393.964 1166.94 394.638C1166.02 395.273 1165.11 395.59 1164.2 395.59C1163.48 395.59 1162.87 395.411 1162.35 395.054C1161.84 394.658 1161.4 394.182 1161.04 393.626L1159.14 390.235ZM1229.89 393.805C1231.8 389.68 1234.14 386.467 1236.92 384.166C1239.69 381.826 1243.08 380.655 1247.09 380.655C1248.36 380.655 1249.57 380.794 1250.72 381.072C1251.91 381.35 1252.96 381.786 1253.87 382.381L1253.1 390.294C1252.86 391.286 1252.27 391.782 1251.31 391.782C1250.76 391.782 1249.95 391.663 1248.88 391.425C1247.8 391.187 1246.59 391.068 1245.25 391.068C1243.34 391.068 1241.64 391.346 1240.13 391.901C1238.66 392.456 1237.33 393.289 1236.14 394.4C1234.99 395.471 1233.94 396.82 1232.99 398.446C1232.08 400.033 1231.24 401.857 1230.49 403.92V442H1219.84V381.726H1225.91C1227.06 381.726 1227.85 381.945 1228.29 382.381C1228.72 382.817 1229.02 383.571 1229.18 384.642L1229.89 393.805ZM1301.09 405.288C1301.09 402.829 1300.73 400.588 1300.02 398.565C1299.34 396.502 1298.33 394.737 1296.98 393.269C1295.67 391.762 1294.07 390.612 1292.16 389.818C1290.26 388.985 1288.1 388.569 1285.68 388.569C1280.6 388.569 1276.57 390.056 1273.6 393.031C1270.66 395.967 1268.84 400.052 1268.12 405.288H1301.09ZM1309.65 433.551C1308.35 435.138 1306.78 436.526 1304.95 437.716C1303.13 438.866 1301.17 439.818 1299.06 440.572C1297 441.326 1294.86 441.881 1292.64 442.238C1290.42 442.635 1288.21 442.833 1286.03 442.833C1281.87 442.833 1278.02 442.139 1274.49 440.75C1271 439.322 1267.96 437.26 1265.39 434.562C1262.85 431.825 1260.86 428.454 1259.44 424.447C1258.01 420.441 1257.29 415.84 1257.29 410.643C1257.29 406.439 1257.93 402.512 1259.2 398.862C1260.51 395.213 1262.37 392.06 1264.79 389.402C1267.21 386.705 1270.17 384.602 1273.66 383.095C1277.15 381.548 1281.07 380.774 1285.44 380.774C1289.05 380.774 1292.38 381.389 1295.43 382.619C1298.53 383.809 1301.19 385.554 1303.41 387.855C1305.67 390.116 1307.43 392.932 1308.7 396.304C1309.97 399.636 1310.61 403.444 1310.61 407.728C1310.61 409.394 1310.43 410.505 1310.07 411.06C1309.71 411.615 1309.04 411.893 1308.05 411.893H1267.77C1267.89 415.701 1268.4 419.013 1269.31 421.829C1270.27 424.646 1271.57 427.006 1273.24 428.91C1274.91 430.774 1276.89 432.182 1279.19 433.134C1281.49 434.047 1284.07 434.503 1286.93 434.503C1289.58 434.503 1291.86 434.205 1293.77 433.61C1295.71 432.976 1297.38 432.301 1298.77 431.587C1300.15 430.873 1301.3 430.219 1302.22 429.624C1303.17 428.989 1303.98 428.672 1304.66 428.672C1305.53 428.672 1306.2 429.009 1306.68 429.683L1309.65 433.551ZM1356.28 414.868C1351.4 415.027 1347.24 415.423 1343.79 416.058C1340.37 416.653 1337.58 417.446 1335.4 418.438C1333.25 419.43 1331.69 420.6 1330.7 421.948C1329.74 423.297 1329.27 424.804 1329.27 426.47C1329.27 428.057 1329.53 429.426 1330.04 430.576C1330.56 431.726 1331.25 432.678 1332.12 433.432C1333.04 434.146 1334.09 434.681 1335.28 435.038C1336.51 435.356 1337.82 435.514 1339.2 435.514C1341.07 435.514 1342.77 435.336 1344.32 434.979C1345.87 434.582 1347.32 434.027 1348.67 433.313C1350.05 432.599 1351.36 431.746 1352.59 430.754C1353.86 429.763 1355.09 428.632 1356.28 427.363V414.868ZM1322.07 390.235C1325.4 387.022 1328.99 384.622 1332.84 383.035C1336.69 381.449 1340.95 380.655 1345.63 380.655C1349 380.655 1352 381.211 1354.62 382.321C1357.23 383.432 1359.43 384.979 1361.22 386.962C1363 388.946 1364.35 391.346 1365.27 394.162C1366.18 396.978 1366.63 400.072 1366.63 403.444V442H1361.93C1360.9 442 1360.11 441.841 1359.55 441.524C1359 441.167 1358.56 440.493 1358.24 439.501L1357.05 433.789C1355.47 435.257 1353.92 436.566 1352.41 437.716C1350.91 438.827 1349.32 439.779 1347.65 440.572C1345.99 441.326 1344.2 441.901 1342.3 442.298C1340.43 442.734 1338.35 442.952 1336.05 442.952C1333.71 442.952 1331.51 442.635 1329.45 442C1327.38 441.326 1325.58 440.334 1324.03 439.025C1322.52 437.716 1321.31 436.07 1320.4 434.086C1319.53 432.063 1319.09 429.683 1319.09 426.946C1319.09 424.566 1319.75 422.286 1321.06 420.104C1322.37 417.883 1324.49 415.919 1327.42 414.213C1330.36 412.508 1334.19 411.119 1338.91 410.048C1343.63 408.938 1349.42 408.303 1356.28 408.144V403.444C1356.28 398.763 1355.27 395.233 1353.25 392.853C1351.22 390.433 1348.27 389.223 1344.38 389.223C1341.76 389.223 1339.56 389.561 1337.78 390.235C1336.03 390.87 1334.5 391.603 1333.2 392.436C1331.93 393.23 1330.82 393.964 1329.86 394.638C1328.95 395.273 1328.04 395.59 1327.13 395.59C1326.41 395.59 1325.8 395.411 1325.28 395.054C1324.77 394.658 1324.33 394.182 1323.97 393.626L1322.07 390.235Z" fill="#263646"/>
<path d="M422.283 218.04C430.717 218.04 437.427 219.763 442.413 223.21C447.4 226.583 449.893 231.643 449.893 238.39C449.893 243.377 448.647 247.557 446.153 250.93C443.733 254.23 440.397 256.723 436.143 258.41C431.963 260.023 427.16 260.83 421.733 260.83L419.203 252.25C425.877 252.25 431.78 253.167 436.913 255C442.12 256.833 446.227 259.473 449.233 262.92C452.24 266.293 453.743 270.363 453.743 275.13C453.743 279.53 452.937 283.27 451.323 286.35C449.783 289.357 447.657 291.813 444.943 293.72C442.303 295.553 439.297 296.91 435.923 297.79C432.55 298.597 429.067 299 425.473 299H398.523V218.04H422.283ZM424.153 251.15C427.307 251.15 429.617 250.197 431.083 248.29C432.623 246.383 433.393 244.22 433.393 241.8C433.393 239.013 432.44 236.923 430.533 235.53C428.7 234.137 426.207 233.44 423.053 233.44H414.473V251.15H424.153ZM424.703 284.15C427.05 284.15 429.177 283.857 431.083 283.27C432.99 282.61 434.493 281.62 435.593 280.3C436.693 278.907 437.243 277.183 437.243 275.13C437.243 272.783 436.583 271.023 435.263 269.85C433.943 268.603 432.22 267.76 430.093 267.32C428.04 266.807 425.877 266.55 423.603 266.55H414.473V284.15H424.703ZM463.474 274.36C463.474 269.447 464.611 265.047 466.884 261.16C469.231 257.273 472.494 254.23 476.674 252.03C480.854 249.757 485.657 248.62 491.084 248.62C496.584 248.62 501.351 249.757 505.384 252.03C509.417 254.23 512.497 257.273 514.624 261.16C516.824 265.047 517.924 269.447 517.924 274.36C517.924 279.273 516.824 283.71 514.624 287.67C512.497 291.557 509.417 294.637 505.384 296.91C501.351 299.183 496.511 300.32 490.864 300.32C485.584 300.32 480.854 299.293 476.674 297.24C472.567 295.187 469.341 292.217 466.994 288.33C464.647 284.443 463.474 279.787 463.474 274.36ZM478.984 274.47C478.984 276.963 479.497 279.237 480.524 281.29C481.551 283.27 482.944 284.847 484.704 286.02C486.464 287.193 488.444 287.78 490.644 287.78C493.064 287.78 495.154 287.193 496.914 286.02C498.674 284.847 500.031 283.27 500.984 281.29C501.937 279.237 502.414 276.963 502.414 274.47C502.414 271.903 501.937 269.63 500.984 267.65C500.031 265.67 498.674 264.093 496.914 262.92C495.154 261.747 493.064 261.16 490.644 261.16C488.444 261.16 486.464 261.747 484.704 262.92C482.944 264.093 481.551 265.67 480.524 267.65C479.497 269.63 478.984 271.903 478.984 274.47ZM526.316 274.36C526.316 269.447 527.452 265.047 529.726 261.16C532.072 257.273 535.336 254.23 539.516 252.03C543.696 249.757 548.499 248.62 553.926 248.62C559.426 248.62 564.192 249.757 568.226 252.03C572.259 254.23 575.339 257.273 577.466 261.16C579.666 265.047 580.766 269.447 580.766 274.36C580.766 279.273 579.666 283.71 577.466 287.67C575.339 291.557 572.259 294.637 568.226 296.91C564.192 299.183 559.352 300.32 553.706 300.32C548.426 300.32 543.696 299.293 539.516 297.24C535.409 295.187 532.182 292.217 529.836 288.33C527.489 284.443 526.316 279.787 526.316 274.36ZM541.826 274.47C541.826 276.963 542.339 279.237 543.366 281.29C544.392 283.27 545.786 284.847 547.546 286.02C549.306 287.193 551.286 287.78 553.486 287.78C555.906 287.78 557.996 287.193 559.756 286.02C561.516 284.847 562.872 283.27 563.826 281.29C564.779 279.237 565.256 276.963 565.256 274.47C565.256 271.903 564.779 269.63 563.826 267.65C562.872 265.67 561.516 264.093 559.756 262.92C557.996 261.747 555.906 261.16 553.486 261.16C551.286 261.16 549.306 261.747 547.546 262.92C545.786 264.093 544.392 265.67 543.366 267.65C542.339 269.63 541.826 271.903 541.826 274.47ZM592.898 299V212.21H608.298V299H592.898ZM620.508 266.33L642.288 299H624.358L610.388 275.13L620.508 266.33ZM603.678 285.69L602.138 271.06L631.178 249.72L640.528 257.97L603.678 285.69ZM675.415 300.32C669.548 300.32 664.561 299.22 660.455 297.02C656.421 294.82 653.341 291.777 651.215 287.89C649.088 284.003 648.025 279.53 648.025 274.47C648.025 269.63 649.271 265.267 651.765 261.38C654.258 257.493 657.595 254.413 661.775 252.14C665.955 249.793 670.611 248.62 675.745 248.62C682.638 248.62 688.285 250.637 692.685 254.67C697.158 258.63 700.055 264.387 701.375 271.94L663.975 283.82L660.565 275.46L687.625 266.33L684.435 267.76C683.848 265.853 682.785 264.203 681.245 262.81C679.778 261.343 677.541 260.61 674.535 260.61C672.261 260.61 670.245 261.16 668.485 262.26C666.798 263.287 665.478 264.79 664.525 266.77C663.645 268.677 663.205 270.95 663.205 273.59C663.205 276.597 663.755 279.127 664.855 281.18C665.955 283.16 667.458 284.663 669.365 285.69C671.271 286.717 673.398 287.23 675.745 287.23C677.431 287.23 679.045 286.937 680.585 286.35C682.198 285.763 683.775 284.993 685.315 284.04L692.135 295.48C689.568 296.947 686.781 298.12 683.775 299C680.841 299.88 678.055 300.32 675.415 300.32ZM732.146 300.32C727.672 300.32 723.676 299.293 720.156 297.24C716.636 295.113 713.849 292.07 711.796 288.11C709.816 284.15 708.826 279.457 708.826 274.03C708.826 268.603 709.926 263.983 712.126 260.17C714.326 256.357 717.332 253.46 721.146 251.48C724.959 249.5 729.286 248.51 734.126 248.51C737.206 248.51 740.139 248.987 742.926 249.94C745.786 250.893 748.169 252.36 750.076 254.34V259.18V212.21H765.366V299H749.966V289.65L751.176 292.95C748.682 295.003 745.896 296.763 742.816 298.23C739.736 299.623 736.179 300.32 732.146 300.32ZM737.206 287.34C739.259 287.34 741.056 287.083 742.596 286.57C744.209 285.983 745.602 285.177 746.776 284.15C748.022 283.05 749.086 281.693 749.966 280.08V268.31C749.379 266.697 748.462 265.34 747.216 264.24C746.042 263.067 744.576 262.187 742.816 261.6C741.129 260.94 739.259 260.61 737.206 260.61C734.932 260.61 732.806 261.197 730.826 262.37C728.919 263.47 727.379 265.01 726.206 266.99C725.032 268.97 724.446 271.243 724.446 273.81C724.446 276.377 725.032 278.687 726.206 280.74C727.379 282.793 728.919 284.407 730.826 285.58C732.806 286.753 734.932 287.34 737.206 287.34Z" fill="#ED8C1D"/>
<path d="M1378.2 435.948C1378.2 435.028 1378.37 434.153 1378.69 433.322C1379.05 432.492 1379.52 431.78 1380.12 431.186C1380.71 430.593 1381.42 430.118 1382.25 429.762C1383.08 429.406 1383.97 429.228 1384.92 429.228C1385.87 429.228 1386.75 429.406 1387.55 429.762C1388.38 430.118 1389.09 430.593 1389.69 431.186C1390.31 431.78 1390.8 432.492 1391.15 433.322C1391.51 434.153 1391.69 435.028 1391.69 435.948C1391.69 436.897 1391.51 437.787 1391.15 438.618C1390.8 439.419 1390.31 440.116 1389.69 440.709C1389.09 441.303 1388.38 441.763 1387.55 442.089C1386.75 442.445 1385.87 442.623 1384.92 442.623C1383.97 442.623 1383.08 442.445 1382.25 442.089C1381.42 441.763 1380.71 441.303 1380.12 440.709C1379.52 440.116 1379.05 439.419 1378.69 438.618C1378.37 437.787 1378.2 436.897 1378.2 435.948Z" fill="#F3DD69"/>
<path d="M1600 645H0V655H1600V645Z" fill="#B1660E" mask="url(#path-1-inside-1_1475_23751)"/>
</svg>
